<svg width="16" height="16" viewBox="0 0 16 16" fill="none" xmlns="http://www.w3.org/2000/svg">
<g clip-path="url(#clip0_2010_700)">
<path d="M5.99998 7.33333C6.5274 7.33333 7.04297 7.17694 7.4815 6.88392C7.92003 6.5909 8.26183 6.17443 8.46366 5.68716C8.66549 5.19989 8.7183 4.66371 8.61541 4.14643C8.51251 3.62914 8.25854 3.15399 7.8856 2.78105C7.51266 2.40811 7.0375 2.15413 6.52022 2.05124C6.00294 1.94835 5.46676 2.00116 4.97949 2.20299C4.49222 2.40482 4.07574 2.74662 3.78273 3.18515C3.48971 3.62368 3.33331 4.13925 3.33331 4.66667C3.33331 5.37391 3.61426 6.05219 4.11436 6.55229C4.61446 7.05238 5.29274 7.33333 5.99998 7.33333ZM5.99998 3.33333C6.26369 3.33333 6.52147 3.41153 6.74074 3.55804C6.96001 3.70455 7.1309 3.91279 7.23182 4.15642C7.33274 4.40006 7.35914 4.66815 7.30769 4.92679C7.25625 5.18543 7.12926 5.42301 6.94279 5.60948C6.75632 5.79595 6.51874 5.92293 6.2601 5.97438C6.00146 6.02583 5.73337 5.99942 5.48974 5.89851C5.2461 5.79759 5.03786 5.62669 4.89135 5.40743C4.74485 5.18816 4.66665 4.93038 4.66665 4.66667C4.66665 4.31305 4.80712 3.97391 5.05717 3.72386C5.30722 3.47381 5.64636 3.33333 5.99998 3.33333Z" fill="white"/>
<path d="M11.3333 8.66663C11.7289 8.66663 12.1156 8.54933 12.4445 8.32957C12.7734 8.1098 13.0297 7.79745 13.1811 7.43199C13.3324 7.06654 13.3721 6.66441 13.2949 6.27645C13.2177 5.88848 13.0272 5.53212 12.7475 5.25241C12.4678 4.97271 12.1115 4.78223 11.7235 4.70506C11.3355 4.62789 10.9334 4.66749 10.5679 4.81887C10.2025 4.97024 9.89014 5.22659 9.67037 5.55549C9.45061 5.88438 9.33331 6.27106 9.33331 6.66663C9.33331 7.19706 9.54403 7.70577 9.9191 8.08084C10.2942 8.45591 10.8029 8.66663 11.3333 8.66663ZM11.3333 5.99996C11.4652 5.99996 11.5941 6.03906 11.7037 6.11231C11.8133 6.18557 11.8988 6.28969 11.9492 6.4115C11.9997 6.53332 12.0129 6.66737 11.9872 6.79669C11.9614 6.92601 11.898 7.0448 11.8047 7.13803C11.7115 7.23127 11.5927 7.29476 11.4634 7.32048C11.3341 7.34621 11.2 7.33301 11.0782 7.28255C10.9564 7.23209 10.8523 7.14664 10.779 7.03701C10.7057 6.92737 10.6666 6.79848 10.6666 6.66663C10.6666 6.48982 10.7369 6.32025 10.8619 6.19522C10.9869 6.0702 11.1565 5.99996 11.3333 5.99996Z" fill="white"/>
<path d="M11.3333 9.33333C10.5945 9.33415 9.87695 9.58038 9.29331 10.0333C8.64032 9.3829 7.80935 8.94039 6.9052 8.76161C6.00104 8.58283 5.06419 8.67579 4.2128 9.02875C3.3614 9.38172 2.63359 9.97889 2.12114 10.745C1.60869 11.511 1.33456 12.4117 1.33331 13.3333C1.33331 13.5101 1.40355 13.6797 1.52858 13.8047C1.6536 13.9298 1.82317 14 1.99998 14C2.17679 14 2.34636 13.9298 2.47138 13.8047C2.59641 13.6797 2.66665 13.5101 2.66665 13.3333C2.66665 12.4493 3.01784 11.6014 3.64296 10.9763C4.26808 10.3512 5.11592 10 5.99998 10C6.88403 10 7.73188 10.3512 8.357 10.9763C8.98212 11.6014 9.33331 12.4493 9.33331 13.3333C9.33331 13.5101 9.40355 13.6797 9.52858 13.8047C9.6536 13.9298 9.82317 14 9.99998 14C10.1768 14 10.3464 13.9298 10.4714 13.8047C10.5964 13.6797 10.6666 13.5101 10.6666 13.3333C10.6682 12.5523 10.4709 11.7837 10.0933 11.1C10.3879 10.8672 10.7421 10.722 11.1154 10.6811C11.4887 10.6402 11.8659 10.7052 12.204 10.8686C12.542 11.0321 12.8272 11.2874 13.0269 11.6054C13.2267 11.9234 13.3328 12.2912 13.3333 12.6667C13.3333 12.8435 13.4036 13.013 13.5286 13.1381C13.6536 13.2631 13.8232 13.3333 14 13.3333C14.1768 13.3333 14.3464 13.2631 14.4714 13.1381C14.5964 13.013 14.6666 12.8435 14.6666 12.6667C14.6666 11.7826 14.3155 10.9348 13.6903 10.3096C13.0652 9.68452 12.2174 9.33333 11.3333 9.33333Z" fill="white"/>
</g>
<defs>
<clipPath id="clip0_2010_700">
<rect width="16" height="16" fill="white"/>
</clipPath>
</defs>
</svg>
