<svg width="25" height="26" viewBox="0 0 25 26" fill="none" xmlns="http://www.w3.org/2000/svg">
<rect x="0.0280151" y="0.885498" width="24.5327" height="24.5327" rx="12.2664" fill="url(#paint0_linear_140_3684)"/>
<path fill-rule="evenodd" clip-rule="evenodd" d="M11.7102 13.4754C13.3192 13.4754 14.6089 12.1689 14.6089 10.5391C14.6089 8.90935 13.3192 7.60291 11.7102 7.60291C10.1012 7.60291 8.81146 8.90935 8.81146 10.5391C8.81146 12.1689 10.1012 13.4754 11.7102 13.4754ZM11.7102 14.9132C9.347 14.9132 7.32935 15.291 7.32935 16.8006C7.32935 18.3096 9.33472 18.701 11.7102 18.701C14.0728 18.701 16.091 18.3232 16.091 16.8136C16.091 15.304 14.0857 14.9132 11.7102 14.9132ZM17.7837 11.743H18.4865C18.7757 11.743 19.0116 11.9821 19.0116 12.2755C19.0116 12.5688 18.7757 12.8079 18.4865 12.8079H17.7837V13.4956C17.7837 13.7889 17.5485 14.0281 17.2586 14.0281C16.9694 14.0281 16.7335 13.7889 16.7335 13.4956V12.8079H16.032C15.7421 12.8079 15.5069 12.5688 15.5069 12.2755C15.5069 11.9821 15.7421 11.743 16.032 11.743H16.7335V11.0559C16.7335 10.7626 16.9694 10.5234 17.2586 10.5234C17.5485 10.5234 17.7837 10.7626 17.7837 11.0559V11.743Z" fill="white"/>
<defs>
<linearGradient id="paint0_linear_140_3684" x1="24.5607" y1="25.4182" x2="-4.631" y2="16.9543" gradientUnits="userSpaceOnUse">
<stop stop-color="#246BFD"/>
<stop offset="1" stop-color="#6F9EFF"/>
</linearGradient>
</defs>
</svg>
