<svg width="20" height="20" viewBox="0 0 20 20" fill="none" xmlns="http://www.w3.org/2000/svg">
<g clip-path="url(#clip0_2010_389)">
<path d="M0 10C0 4.47717 4.47717 0 10 0C15.5228 0 20 4.47717 20 10C20 15.5228 15.5228 20 10 20C4.47717 20 0 15.5228 0 10Z" fill="white"/>
<path d="M9.20411 6.99236C8.86182 6.83556 8.49305 6.66663 7.87645 6.66663C5.57529 6.66663 5.00002 9.01968 5 11.3725C4.99998 13.7253 6.72587 16.6666 7.87645 16.6666C8.55045 16.6666 9.02703 16.4648 9.42186 16.2976C9.70104 16.1793 9.93933 16.0784 10.1776 16.0784C10.4159 16.0784 10.6542 16.1793 10.9334 16.2976C11.3282 16.4648 11.8048 16.6666 12.4788 16.6666C13.3001 16.6666 14.4147 15.1679 14.9853 13.4541C15.0427 13.2815 14.9255 13.1035 14.7534 13.0559C13.7744 12.7854 13.0541 11.8709 13.0541 10.7843C13.0541 9.75898 13.6955 8.8868 14.5904 8.56443C14.7603 8.5032 14.8652 8.31291 14.7851 8.14784C14.3542 7.2596 13.634 6.66663 12.4788 6.66663C11.8622 6.66663 11.4934 6.83556 11.1511 6.99236C10.8547 7.12816 10.5781 7.25486 10.1776 7.25486C9.7771 7.25486 9.50055 7.12816 9.20411 6.99236Z" fill="#111830"/>
<path d="M9.16663 5.67712C9.16663 4.38271 10.2159 3.33337 11.5104 3.33337C11.5967 3.33337 11.6666 3.40333 11.6666 3.48962C11.6666 4.78404 10.6173 5.83337 9.32288 5.83337C9.23656 5.83337 9.16663 5.76342 9.16663 5.67712Z" fill="#111830"/>
</g>
<defs>
<clipPath id="clip0_2010_389">
<rect width="20" height="20" fill="white"/>
</clipPath>
</defs>
</svg>
