<svg width="12" height="12" viewBox="0 0 12 12" fill="none" xmlns="http://www.w3.org/2000/svg">
<path d="M5.08504 9.50002C5.15974 9.50027 5.23354 9.48378 5.30103 9.45177C5.36852 9.41975 5.42798 9.37303 5.47504 9.31502L7.89004 6.31502C7.96358 6.22555 8.00378 6.11333 8.00378 5.99752C8.00378 5.8817 7.96358 5.76948 7.89004 5.68002L5.39004 2.68002C5.30517 2.57791 5.18322 2.5137 5.051 2.50151C4.91879 2.48932 4.78715 2.53015 4.68504 2.61502C4.58293 2.69989 4.51872 2.82184 4.50653 2.95405C4.49434 3.08627 4.53517 3.21791 4.62004 3.32002L6.85504 6.00002L4.69504 8.68002C4.6339 8.75341 4.59506 8.84278 4.58312 8.93755C4.57118 9.03233 4.58664 9.12854 4.62767 9.2148C4.6687 9.30107 4.73358 9.37377 4.81463 9.42432C4.89569 9.47486 4.98952 9.50113 5.08504 9.50002Z" fill="white"/>
</svg>
