<svg width="120" height="120" viewBox="0 0 120 120" fill="none" xmlns="http://www.w3.org/2000/svg">
<g clip-path="url(#clip0_140_3825)">
<path d="M43.4087 109.175C46.2256 115.543 52.6006 120 60.0003 120C67.4 120 73.7747 115.543 76.5918 109.175H43.4087Z" fill="white" fill-opacity="0.08"/>
<path d="M59.9984 11.4648C64.8815 11.4648 69.5702 12.3264 73.9212 13.9038V13.3678C73.9212 5.99676 67.9245 0 60.5537 0H59.4458C52.0748 0 46.078 5.99676 46.078 13.3678V13.897C50.4267 12.3243 55.114 11.4648 59.9984 11.4648Z" fill="white" fill-opacity="0.08"/>
<path d="M103.94 102.132H16.0595C14.3969 102.132 12.874 101.011 12.5282 99.3841C12.1859 97.7739 12.9198 96.1846 14.4086 95.4967C14.7619 95.2676 17.4213 93.4081 20.0838 87.782C24.9736 77.4501 26 62.896 26 52.5059C26 33.759 41.2518 18.5077 59.9985 18.5077C78.7008 18.5077 93.9244 33.6855 93.9967 52.3709C93.9983 52.4158 93.9993 52.4609 93.9993 52.5059C93.9993 62.896 95.0257 77.4501 99.9155 87.782C102.578 93.4081 105.237 95.2678 105.591 95.4967C107.08 96.1846 107.814 97.7737 107.471 99.3841C107.125 101.01 105.603 102.132 103.94 102.132ZM105.63 95.5216H105.632H105.63Z" fill="white" fill-opacity="0.08"/>
</g>
<defs>
<clipPath id="clip0_140_3825">
<rect width="120" height="120" fill="white"/>
</clipPath>
</defs>
</svg>
