<svg width="32" height="32" viewBox="0 0 32 32" fill="none" xmlns="http://www.w3.org/2000/svg">
<circle cx="16" cy="16" r="16" fill="white" fill-opacity="0.06"/>
<path d="M22.3418 18.682C21.9949 18.0845 21.4793 16.3939 21.4793 14.1858C21.4793 12.8597 20.9525 11.5879 20.0149 10.6503C19.0772 9.71258 17.8054 9.18579 16.4793 9.18579C15.1532 9.18579 13.8815 9.71258 12.9438 10.6503C12.0061 11.5879 11.4793 12.8597 11.4793 14.1858C11.4793 16.3945 10.9631 18.0845 10.6162 18.682C10.5276 18.8339 10.4807 19.0065 10.48 19.1824C10.4794 19.3582 10.5252 19.5311 10.6128 19.6836C10.7003 19.8361 10.8265 19.9628 10.9786 20.051C11.1308 20.1392 11.3035 20.1857 11.4793 20.1858H14.0299C14.1453 20.7503 14.4521 21.2576 14.8984 21.6219C15.3447 21.9862 15.9032 22.1852 16.4793 22.1852C17.0555 22.1852 17.6139 21.9862 18.0602 21.6219C18.5066 21.2576 18.8133 20.7503 18.9287 20.1858H21.4793C21.6551 20.1856 21.8277 20.139 21.9798 20.0508C22.1318 19.9626 22.2579 19.8358 22.3454 19.6833C22.4329 19.5308 22.4786 19.358 22.478 19.1822C22.4773 19.0064 22.4304 18.8339 22.3418 18.682ZM16.4793 21.1858C16.1692 21.1857 15.8667 21.0895 15.6136 20.9104C15.3604 20.7313 15.1689 20.4782 15.0656 20.1858H17.8931C17.7897 20.4782 17.5982 20.7313 17.3451 20.9104C17.0919 21.0895 16.7894 21.1857 16.4793 21.1858ZM11.4793 19.1858C11.9606 18.3583 12.4793 16.4408 12.4793 14.1858C12.4793 13.1249 12.9007 12.1075 13.6509 11.3574C14.401 10.6072 15.4185 10.1858 16.4793 10.1858C17.5402 10.1858 18.5576 10.6072 19.3077 11.3574C20.0579 12.1075 20.4793 13.1249 20.4793 14.1858C20.4793 16.4389 20.9968 18.3564 21.4793 19.1858H11.4793Z" fill="white"/>
</svg>
