<svg width="18" height="19" viewBox="0 0 18 19" fill="none" xmlns="http://www.w3.org/2000/svg">
<path fill-rule="evenodd" clip-rule="evenodd" d="M11.6178 9.77488C11.6178 8.50674 10.5894 7.47839 9.32128 7.47839C8.05314 7.47839 7.0248 8.50674 7.0248 9.77488C7.0248 11.043 8.05314 12.0714 9.32128 12.0714C10.5894 12.0714 11.6178 11.043 11.6178 9.77488Z" stroke="#9E9E9E" stroke-width="1.31425" stroke-linecap="round" stroke-linejoin="round"/>
<path fill-rule="evenodd" clip-rule="evenodd" d="M9.32104 15.3984C15.1952 15.3984 15.8946 13.6384 15.8946 9.82477C15.8946 7.15169 15.5411 5.72139 13.3145 5.10653C13.1101 5.04197 12.8834 4.919 12.6997 4.71687C12.403 4.39176 12.1863 3.39339 11.47 3.09135C10.7537 2.79007 7.8769 2.8039 7.17213 3.09135C6.46812 3.37956 6.23908 4.39176 5.94242 4.71687C5.75873 4.919 5.53277 5.04197 5.32756 5.10653C3.10102 5.72139 2.74748 7.15169 2.74748 9.82477C2.74748 13.6384 3.44687 15.3984 9.32104 15.3984Z" stroke="#9E9E9E" stroke-width="1.31425" stroke-linecap="round" stroke-linejoin="round"/>
<path d="M12.9075 7.22078H12.914" stroke="#9E9E9E" stroke-width="1.31425" stroke-linecap="round" stroke-linejoin="round"/>
</svg>
