<svg width="20" height="20" viewBox="0 0 20 20" fill="none" xmlns="http://www.w3.org/2000/svg">
<path fill-rule="evenodd" clip-rule="evenodd" d="M16.6667 4.16667H3.33337C2.87314 4.16667 2.50004 4.53976 2.50004 5V15C2.50004 15.4602 2.87314 15.8333 3.33337 15.8333H16.6667C17.1269 15.8333 17.5 15.4602 17.5 15V5C17.5 4.53976 17.1269 4.16667 16.6667 4.16667ZM3.33337 2.5C1.95266 2.5 0.833374 3.61929 0.833374 5V15C0.833374 16.3807 1.95266 17.5 3.33337 17.5H16.6667C18.0474 17.5 19.1667 16.3807 19.1667 15V5C19.1667 3.61929 18.0474 2.5 16.6667 2.5H3.33337Z" fill="white"/>
<path fill-rule="evenodd" clip-rule="evenodd" d="M4.3598 6.13312C4.65443 5.77956 5.1799 5.73179 5.53347 6.02642L9.46649 9.30395C9.77553 9.56148 10.2244 9.56148 10.5335 9.30394L14.4665 6.02642C14.8201 5.73179 15.3455 5.77956 15.6402 6.13312C15.9348 6.48668 15.887 7.01215 15.5335 7.30679L11.6004 10.5843C10.6733 11.3569 9.32664 11.3569 8.39952 10.5843L4.46649 7.30679C4.11293 7.01215 4.06516 6.48668 4.3598 6.13312Z" fill="white"/>
</svg>
