<svg width="25" height="26" viewBox="0 0 25 26" fill="none" xmlns="http://www.w3.org/2000/svg">
<path fill-rule="evenodd" clip-rule="evenodd" d="M10.143 12.0002C9.69577 12.0002 9.34216 12.3478 9.34216 12.7873C9.34216 13.2167 9.69577 13.5744 10.143 13.5744H16.3831V18.4605C16.3831 20.9649 14.3135 23.0093 11.755 23.0093H6.6901C4.14204 23.0093 2.07239 20.9751 2.07239 18.4707V7.11414C2.07239 4.59954 4.15244 2.56537 6.7005 2.56537H11.7758C14.3135 2.56537 16.3831 4.59954 16.3831 7.10392V12.0002H10.143ZM20.0939 9.25076L23.0787 12.2254C23.232 12.3787 23.3138 12.5729 23.3138 12.7876C23.3138 12.992 23.232 13.1964 23.0787 13.3395L20.0939 16.3141C19.9406 16.4675 19.7361 16.5492 19.5419 16.5492C19.3375 16.5492 19.133 16.4675 18.9797 16.3141C18.6731 16.0075 18.6731 15.5066 18.9797 15.1999L20.6152 13.5747H16.3833V12.0005H20.6152L18.9797 10.3752C18.6731 10.0685 18.6731 9.56764 18.9797 9.26098C19.2864 8.9441 19.7872 8.9441 20.0939 9.25076Z" fill="#F75555"/>
</svg>
