<svg width="32" height="29" viewBox="0 0 32 29" fill="none" xmlns="http://www.w3.org/2000/svg">
<g filter="url(#filter0_d_140_3770)">
<path d="M20.5 10.5H18.25C18.0511 10.5 17.8603 10.421 17.7196 10.2803C17.579 10.1397 17.5 9.94891 17.5 9.75C17.5 9.55109 17.579 9.36032 17.7196 9.21967C17.8603 9.07902 18.0511 9 18.25 9H20.5C20.6989 9 20.8897 9.07902 21.0303 9.21967C21.171 9.36032 21.25 9.55109 21.25 9.75C21.25 9.94891 21.171 10.1397 21.0303 10.2803C20.8897 10.421 20.6989 10.5 20.5 10.5ZM13.75 9H13V8.25C13 8.05109 12.921 7.86032 12.7803 7.71967C12.6397 7.57902 12.4489 7.5 12.25 7.5C12.0511 7.5 11.8603 7.57902 11.7196 7.71967C11.579 7.86032 11.5 8.05109 11.5 8.25V9H10.75C10.5511 9 10.3603 9.07902 10.2196 9.21967C10.079 9.36032 9.99997 9.55109 9.99997 9.75C9.99997 9.94891 10.079 10.1397 10.2196 10.2803C10.3603 10.421 10.5511 10.5 10.75 10.5H11.5V11.25C11.5 11.4489 11.579 11.6397 11.7196 11.7803C11.8603 11.921 12.0511 12 12.25 12C12.4489 12 12.6397 11.921 12.7803 11.7803C12.921 11.6397 13 11.4489 13 11.25V10.5H13.75C13.9489 10.5 14.1397 10.421 14.2803 10.2803C14.421 10.1397 14.5 9.94891 14.5 9.75C14.5 9.55109 14.421 9.36032 14.2803 9.21967C14.1397 9.07902 13.9489 9 13.75 9ZM26.6387 18.8109C26.3561 19.2146 25.9884 19.5514 25.5617 19.7978C25.1349 20.0442 24.6594 20.1941 24.1685 20.2371C23.6776 20.2801 23.1833 20.2151 22.7202 20.0466C22.2572 19.8781 21.8366 19.6103 21.4881 19.2619C21.4768 19.2506 21.4656 19.2394 21.4553 19.2272L17.7325 15H14.2637L10.5447 19.2272L10.5118 19.2619C9.87829 19.8941 9.01999 20.2494 8.12497 20.25C7.63226 20.2498 7.14556 20.1418 6.69906 19.9334C6.25257 19.7251 5.85711 19.4215 5.54046 19.044C5.22381 18.6665 4.99366 18.2242 4.86616 17.7483C4.73867 17.2724 4.71693 16.7743 4.80247 16.2891C4.80202 16.2847 4.80202 16.2803 4.80247 16.2759L6.33716 8.3925C6.56556 7.09225 7.2449 5.91409 8.25581 5.06504C9.26671 4.21599 10.5445 3.75037 11.8647 3.75H20.125C21.4411 3.7521 22.715 4.21506 23.7254 5.05849C24.7358 5.90193 25.419 7.07258 25.6562 8.36719C25.6562 8.37281 25.6562 8.37844 25.6562 8.38406L27.1909 16.275C27.1914 16.2794 27.1914 16.2838 27.1909 16.2881C27.2703 16.7243 27.2624 17.1718 27.1676 17.6049C27.0729 18.0379 26.8931 18.4479 26.6387 18.8109ZM20.125 13.5C21.219 13.5 22.2682 13.0654 23.0418 12.2918C23.8154 11.5182 24.25 10.469 24.25 9.375C24.25 8.28098 23.8154 7.23177 23.0418 6.45818C22.2682 5.6846 21.219 5.25 20.125 5.25H11.8647C10.8962 5.25087 9.95902 5.59325 9.21807 6.21691C8.47712 6.84057 7.97984 7.70556 7.81372 8.65969V8.67188L6.2781 16.5553C6.21022 16.9461 6.26805 17.3484 6.44326 17.7043C6.61848 18.0602 6.90206 18.3514 7.25321 18.5359C7.60436 18.7204 8.00498 18.7889 8.39747 18.7313C8.78996 18.6738 9.15408 18.4932 9.43747 18.2156L13.3675 13.7541C13.4378 13.6742 13.5244 13.6103 13.6214 13.5665C13.7184 13.5227 13.8236 13.5 13.93 13.5H20.125ZM25.7218 16.5553L24.9025 12.3366C24.3985 13.1503 23.6953 13.822 22.8593 14.2881C22.0232 14.7542 21.0821 14.9992 20.125 15H19.7312L22.5625 18.2166C22.7759 18.4242 23.0356 18.5783 23.3201 18.6661C23.6047 18.7539 23.906 18.773 24.1993 18.7219C24.6881 18.6356 25.1226 18.3591 25.4078 17.953C25.6931 17.5469 25.8056 17.0443 25.7209 16.5553H25.7218Z" fill="white"/>
</g>
<defs>
<filter id="filter0_d_140_3770" x="0" y="0" width="32" height="32" filterUnits="userSpaceOnUse" color-interpolation-filters="sRGB">
<feFlood flood-opacity="0" result="BackgroundImageFix"/>
<feColorMatrix in="SourceAlpha" type="matrix" values="0 0 0 0 0 0 0 0 0 0 0 0 0 0 0 0 0 0 127 0" result="hardAlpha"/>
<feOffset dy="4"/>
<feGaussianBlur stdDeviation="2"/>
<feComposite in2="hardAlpha" operator="out"/>
<feColorMatrix type="matrix" values="0 0 0 0 0 0 0 0 0 0 0 0 0 0 0 0 0 0 0.25 0"/>
<feBlend mode="normal" in2="BackgroundImageFix" result="effect1_dropShadow_140_3770"/>
<feBlend mode="normal" in="SourceGraphic" in2="effect1_dropShadow_140_3770" result="shape"/>
</filter>
</defs>
</svg>
