<svg width="20" height="20" viewBox="0 0 20 20" fill="none" xmlns="http://www.w3.org/2000/svg">
<g clip-path="url(#clip0_2010_747)">
<path d="M0 10C0 4.47717 4.47717 0 10 0C15.5228 0 20 4.47717 20 10C20 15.5228 15.5228 20 10 20C4.47717 20 0 15.5228 0 10Z" fill="white"/>
<path d="M9.99979 7.34229C10.8135 7.34229 11.3624 7.69379 11.6753 7.9875L12.8983 6.79342C12.1472 6.09525 11.1698 5.66675 9.99979 5.66675C8.30495 5.66675 6.84125 6.63933 6.12866 8.05487L7.52979 9.14304C7.88125 8.09821 8.85383 7.34229 9.99979 7.34229Z" fill="#EA4335"/>
<path d="M14.16 10.0964C14.16 9.74007 14.1311 9.48007 14.0685 9.21045H10V10.8186H12.3882C12.34 11.2182 12.08 11.8201 11.5022 12.2245L12.8696 13.2838C13.6882 12.5278 14.16 11.4156 14.16 10.0964Z" fill="#4285F4"/>
<path d="M7.53467 10.8568C7.44317 10.5872 7.39021 10.2983 7.39021 9.99978C7.39021 9.70123 7.44317 9.41236 7.52984 9.14273L6.12871 8.05457C5.83505 8.64198 5.6665 9.30161 5.6665 9.99978C5.6665 10.6979 5.83505 11.3576 6.12871 11.9449L7.53467 10.8568Z" fill="#FBBC05"/>
<path d="M9.99996 14.3334C11.17 14.3334 12.1522 13.9482 12.8696 13.2837L11.5022 12.2245C11.1362 12.4796 10.6452 12.6578 9.99996 12.6578C8.85404 12.6578 7.88146 11.9018 7.53479 10.8571L6.13367 11.9452C6.84625 13.3608 8.30517 14.3334 9.99996 14.3334Z" fill="#34A853"/>
</g>
<defs>
<clipPath id="clip0_2010_747">
<rect width="20" height="20" fill="white"/>
</clipPath>
</defs>
</svg>
