<svg width="14" height="14" viewBox="0 0 14 14" fill="none" xmlns="http://www.w3.org/2000/svg">
<path d="M6.99998 13.6667C3.31798 13.6667 0.333313 10.682 0.333313 7.00004C0.333313 3.31804 3.31798 0.333374 6.99998 0.333374C10.682 0.333374 13.6666 3.31804 13.6666 7.00004C13.6666 10.682 10.682 13.6667 6.99998 13.6667ZM6.99998 12.3334C8.41447 12.3334 9.77102 11.7715 10.7712 10.7713C11.7714 9.77108 12.3333 8.41453 12.3333 7.00004C12.3333 5.58555 11.7714 4.229 10.7712 3.2288C9.77102 2.22861 8.41447 1.66671 6.99998 1.66671C5.58549 1.66671 4.22894 2.22861 3.22874 3.2288C2.22855 4.229 1.66665 5.58555 1.66665 7.00004C1.66665 8.41453 2.22855 9.77108 3.22874 10.7713C4.22894 11.7715 5.58549 12.3334 6.99998 12.3334V12.3334ZM6.33331 9.00004H7.66665V10.3334H6.33331V9.00004ZM7.66665 7.90337V8.33337H6.33331V7.33337C6.33331 7.15656 6.40355 6.98699 6.52858 6.86197C6.6536 6.73695 6.82317 6.66671 6.99998 6.66671C7.18937 6.6667 7.37485 6.6129 7.53486 6.51159C7.69487 6.41028 7.82282 6.26562 7.90383 6.09443C7.98483 5.92324 8.01556 5.73257 7.99243 5.5446C7.96931 5.35663 7.89328 5.1791 7.7732 5.03265C7.65312 4.8862 7.49392 4.77686 7.31413 4.71735C7.13433 4.65785 6.94134 4.65062 6.7576 4.69651C6.57386 4.7424 6.40692 4.83953 6.27622 4.97658C6.14553 5.11364 6.05643 5.285 6.01931 5.47071L4.71131 5.20871C4.7924 4.80343 4.97965 4.42695 5.25393 4.11776C5.5282 3.80858 5.87966 3.57776 6.27237 3.44892C6.66509 3.32008 7.08497 3.29783 7.4891 3.38445C7.89323 3.47107 8.26711 3.66345 8.57253 3.94192C8.87794 4.2204 9.10393 4.57498 9.22739 4.96942C9.35085 5.36385 9.36736 5.784 9.27522 6.18691C9.18309 6.58982 8.98562 6.96104 8.70299 7.26262C8.42037 7.56419 8.06274 7.78531 7.66665 7.90337V7.90337Z" fill="white"/>
</svg>
