<svg width="12" height="12" viewBox="0 0 12 12" fill="none" xmlns="http://www.w3.org/2000/svg">
<g clip-path="url(#clip0_140_3790)">
<path d="M11.8173 2.57189L11.0447 4.46693C11.0231 4.51992 10.9595 4.54148 10.91 4.51259L9.42445 3.64385V11.8242H2.57576V3.64385L1.08994 4.51259C1.04051 4.54151 0.97692 4.51992 0.955334 4.46693L0.18274 2.57189C0.167178 2.53373 0.17831 2.48988 0.210209 2.46375L2.3291 0.727194L4.24223 0.179412C4.27732 0.169357 4.31482 0.180561 4.33896 0.207936C4.46819 0.354608 4.95018 0.804514 6 0.804514C7.04981 0.804514 7.53178 0.354608 7.66104 0.207936C7.68515 0.180561 7.72268 0.169357 7.75776 0.179412L9.67113 0.727194L11.7898 2.46375C11.8217 2.48988 11.8328 2.53373 11.8173 2.57189Z" fill="#EFFA5D"/>
<path d="M8.71899 4.12647L8.71902 11.8242H9.42446V3.64387C9.0849 3.5122 8.71899 3.76251 8.71899 4.12647Z" fill="#FFF7E6"/>
<path d="M11.79 2.46378L11.1592 1.94675L10.3578 4.18955L10.9102 4.51261C10.9597 4.54151 11.0232 4.51995 11.0449 4.46696L11.8175 2.57192C11.833 2.53376 11.8219 2.48991 11.79 2.46378Z" fill="#FFF7E6"/>
<path d="M5.99993 0.804495C4.95012 0.804495 4.46815 0.354589 4.33889 0.207894C4.31477 0.180519 4.27725 0.169339 4.24216 0.179394L3.66799 0.343784H3.66797C3.66797 0.343784 4.18755 1.53992 5.99993 1.53992C7.8123 1.53992 8.33196 0.343784 8.33196 0.343784L7.75769 0.179394C7.72261 0.169339 7.68509 0.180519 7.66097 0.207894C7.53171 0.354589 7.04974 0.804495 5.99993 0.804495Z" fill="#FFF7E6"/>
<path d="M6.43398 7.7346C6.43398 7.98743 6.23966 8.19229 5.99991 8.19229C5.87995 8.19229 5.77167 8.14113 5.69304 8.05821C5.61441 7.97556 5.5659 7.86087 5.5659 7.7346V6.06537C5.5659 5.81257 5.76017 5.60768 5.99991 5.60768C6.11993 5.60768 6.22818 5.65884 6.30681 5.74176C6.38545 5.82442 6.43398 5.9391 6.43398 6.06537V7.7346ZM6.8486 5.17071C6.63132 4.9416 6.33134 4.8 5.99991 4.8C5.33738 4.8 4.79993 5.36646 4.79993 6.06537V7.7346C4.79993 8.43354 5.33738 9 5.99991 9C6.66273 9 7.19993 8.43354 7.19993 7.7346V6.06537C7.19993 5.7159 7.06561 5.39957 6.8486 5.17071Z" fill="#FFF7E6"/>
<path d="M3.74676 11.8242H2.57568V5.26875" stroke="black" stroke-width="0.3" stroke-miterlimit="10" stroke-linecap="round" stroke-linejoin="round"/>
<path d="M9.52251 0.68466L9.67112 0.727199L11.7898 2.46375C11.8217 2.48989 11.8328 2.53374 11.8172 2.57189L11.0447 4.46693C11.023 4.51992 10.9595 4.54149 10.91 4.51259L9.42444 3.64385V11.8242H4.49683" stroke="black" stroke-width="0.3" stroke-miterlimit="10" stroke-linecap="round" stroke-linejoin="round"/>
<path d="M2.57577 4.49386V3.64388L1.08993 4.51261C1.04052 4.54151 0.976938 4.51995 0.955329 4.46696L0.182736 2.57192C0.167173 2.53374 0.178329 2.48991 0.210204 2.46375L2.32912 0.727222L4.24225 0.179418C4.27734 0.169387 4.31484 0.180566 4.33895 0.207941C4.46821 0.354636 4.9502 0.804543 6.00002 0.804543C7.04983 0.804543 7.5318 0.354636 7.66105 0.207941C7.68517 0.180566 7.72269 0.169387 7.75778 0.179418L8.80138 0.478222" stroke="black" stroke-width="0.3" stroke-miterlimit="10" stroke-linecap="round" stroke-linejoin="round"/>
<path d="M3.66799 0.343784H3.66797C3.66797 0.343784 4.18755 1.53992 5.99993 1.53992C7.8123 1.53992 8.33196 0.343784 8.33196 0.343784" stroke="black" stroke-width="0.3" stroke-miterlimit="10" stroke-linecap="round" stroke-linejoin="round"/>
<path d="M6.00035 9H5.99951C5.33703 9 4.79993 8.43327 4.79993 7.73418V6.0658C4.79993 5.36671 5.33703 4.8 5.99951 4.8H6.00035C6.66285 4.8 7.19993 5.36671 7.19993 6.0658V7.73418C7.19993 8.43327 6.66285 9 6.00035 9Z" stroke="black" stroke-width="0.3" stroke-miterlimit="10" stroke-linecap="round" stroke-linejoin="round"/>
<path d="M5.40002 7.8686V5.93145C5.40002 5.63797 5.66855 5.40002 5.99983 5.40002H6.00025C6.33154 5.40002 6.60002 5.63797 6.60002 5.93145V7.8686C6.60002 8.16211 6.33154 8.40002 6.00025 8.40002H5.99983C5.66855 8.40002 5.40002 8.16211 5.40002 7.8686Z" stroke="black" stroke-width="0.3" stroke-miterlimit="10" stroke-linecap="round" stroke-linejoin="round"/>
</g>
<defs>
<clipPath id="clip0_140_3790">
<rect width="12" height="12" fill="white"/>
</clipPath>
</defs>
</svg>
