<svg width="22" height="21" viewBox="0 0 22 21" fill="none" xmlns="http://www.w3.org/2000/svg">
<path d="M19.2688 2.38159C18.8364 1.93778 18.1964 1.77244 17.5997 1.94648L3.68438 5.99302C3.05478 6.16794 2.60852 6.67005 2.48831 7.30793C2.3655 7.95711 2.79446 8.78122 3.35488 9.12582L7.70589 11.8C8.15214 12.0741 8.72813 12.0054 9.09741 11.6329L14.0798 6.61958C14.3306 6.35851 14.7457 6.35851 14.9965 6.61958C15.2473 6.87195 15.2473 7.28095 14.9965 7.54202L10.0055 12.5562C9.63534 12.9278 9.56616 13.5065 9.83858 13.9556L12.4971 18.3502C12.8084 18.8723 13.3446 19.1682 13.9327 19.1682C14.0019 19.1682 14.0798 19.1682 14.1489 19.1595C14.8235 19.0725 15.3597 18.6113 15.5586 17.9586L19.6839 4.06113C19.8655 3.46937 19.7012 2.82541 19.2688 2.38159Z" fill="white"/>
</svg>
