<svg width="16" height="16" viewBox="0 0 16 16" fill="none" xmlns="http://www.w3.org/2000/svg">
<rect opacity="0.01" width="16" height="16" fill="white"/>
<path d="M9.99998 10.6666H5.99998C5.63179 10.6666 5.33331 10.9651 5.33331 11.3333C5.33331 11.7015 5.63179 12 5.99998 12H9.99998C10.3682 12 10.6666 11.7015 10.6666 11.3333C10.6666 10.9651 10.3682 10.6666 9.99998 10.6666Z" fill="white"/>
<path d="M5.99998 9.33333H7.99998C8.36817 9.33333 8.66665 9.03486 8.66665 8.66667C8.66665 8.29848 8.36817 8 7.99998 8H5.99998C5.63179 8 5.33331 8.29848 5.33331 8.66667C5.33331 9.03486 5.63179 9.33333 5.99998 9.33333Z" fill="white"/>
<path fill-rule="evenodd" clip-rule="evenodd" d="M13.16 5.55337L9.53335 1.55337C9.40731 1.41372 9.22814 1.33382 9.04002 1.33337H4.37335C3.92601 1.32804 3.49488 1.50064 3.17481 1.81321C2.85474 2.12578 2.67196 2.5527 2.66669 3.00004V13C2.67196 13.4474 2.85474 13.8743 3.17481 14.1869C3.49488 14.4994 3.92601 14.672 4.37335 14.6667H11.6267C12.074 14.672 12.5052 14.4994 12.8252 14.1869C13.1453 13.8743 13.3281 13.4474 13.3334 13V6.00004C13.3329 5.83482 13.2712 5.67564 13.16 5.55337ZM9.33365 3.33341L11.1603 5.33341H9.82698C9.68596 5.3249 9.55426 5.26008 9.46149 5.15352C9.36873 5.04697 9.32266 4.9076 9.33365 4.76675V3.33341ZM4.37335 13.3334H11.6267C11.7204 13.3388 11.8125 13.3067 11.8825 13.2442C11.9526 13.1817 11.9949 13.0938 12 13V6.66671H9.80669C8.78459 6.63763 7.97762 5.78897 8.00002 4.76671V2.66671H4.37335C4.27961 2.66125 4.18754 2.69333 4.11749 2.75588C4.04745 2.81842 4.00518 2.90627 4.00002 3.00004V13C4.00518 13.0938 4.04745 13.1817 4.11749 13.2442C4.18754 13.3067 4.27961 13.3388 4.37335 13.3334Z" fill="white"/>
</svg>
