<svg width="32" height="32" viewBox="0 0 32 32" fill="none" xmlns="http://www.w3.org/2000/svg">
<circle cx="16" cy="16" r="16" fill="white" fill-opacity="0.06"/>
<path d="M21 10H19.5V9.5C19.5 9.36739 19.4473 9.24021 19.3536 9.14645C19.2598 9.05268 19.1326 9 19 9C18.8674 9 18.7402 9.05268 18.6464 9.14645C18.5527 9.24021 18.5 9.36739 18.5 9.5V10H13.5V9.5C13.5 9.36739 13.4473 9.24021 13.3536 9.14645C13.2598 9.05268 13.1326 9 13 9C12.8674 9 12.7402 9.05268 12.6464 9.14645C12.5527 9.24021 12.5 9.36739 12.5 9.5V10H11C10.7348 10 10.4804 10.1054 10.2929 10.2929C10.1054 10.4804 10 10.7348 10 11V21C10 21.2652 10.1054 21.5196 10.2929 21.7071C10.4804 21.8946 10.7348 22 11 22H21C21.2652 22 21.5196 21.8946 21.7071 21.7071C21.8946 21.5196 22 21.2652 22 21V11C22 10.7348 21.8946 10.4804 21.7071 10.2929C21.5196 10.1054 21.2652 10 21 10ZM15 19.5C15 19.6326 14.9473 19.7598 14.8536 19.8536C14.7598 19.9473 14.6326 20 14.5 20C14.3674 20 14.2402 19.9473 14.1464 19.8536C14.0527 19.7598 14 19.6326 14 19.5V16.3088L13.7238 16.4475C13.6051 16.5068 13.4677 16.5166 13.3418 16.4746C13.2159 16.4327 13.1118 16.3424 13.0525 16.2238C12.9932 16.1051 12.9834 15.9677 13.0254 15.8418C13.0673 15.7159 13.1576 15.6118 13.2762 15.5525L14.2762 15.0525C14.3525 15.0143 14.4373 14.9963 14.5224 15.0001C14.6076 15.004 14.6904 15.0295 14.7629 15.0744C14.8355 15.1192 14.8953 15.1819 14.9368 15.2564C14.9783 15.3309 15.0001 15.4147 15 15.5V19.5ZM18.5 19C18.6326 19 18.7598 19.0527 18.8536 19.1464C18.9473 19.2402 19 19.3674 19 19.5C19 19.6326 18.9473 19.7598 18.8536 19.8536C18.7598 19.9473 18.6326 20 18.5 20H16.5C16.4071 20 16.3161 19.9741 16.2371 19.9253C16.1581 19.8765 16.0943 19.8067 16.0528 19.7236C16.0113 19.6406 15.9937 19.5476 16.002 19.4551C16.0104 19.3626 16.0443 19.2743 16.1 19.2L17.8988 16.8019C17.9397 16.7474 17.969 16.6852 17.985 16.6189C18.001 16.5527 18.0033 16.4839 17.9917 16.4168C17.9802 16.3497 17.955 16.2856 17.9178 16.2285C17.8806 16.1715 17.8321 16.1226 17.7754 16.0849C17.7186 16.0473 17.6548 16.0216 17.5877 16.0095C17.5207 15.9974 17.4519 15.9992 17.3855 16.0146C17.3192 16.0301 17.2567 16.0589 17.2019 16.0994C17.1471 16.1399 17.1012 16.1911 17.0669 16.25C17.035 16.3087 16.9917 16.3604 16.9396 16.4021C16.8874 16.4437 16.8274 16.4745 16.7631 16.4926C16.6989 16.5108 16.6316 16.5158 16.5654 16.5075C16.4991 16.4992 16.4352 16.4778 16.3774 16.4444C16.3196 16.411 16.269 16.3663 16.2287 16.3131C16.1885 16.2598 16.1592 16.1991 16.1428 16.1343C16.1264 16.0696 16.1231 16.0023 16.1332 15.9363C16.1432 15.8702 16.1663 15.8069 16.2013 15.75C16.3664 15.4642 16.6213 15.2408 16.9263 15.1146C17.2313 14.9883 17.5694 14.9662 17.8883 15.0516C18.2071 15.1371 18.4889 15.3253 18.6899 15.5872C18.8909 15.849 18.9999 16.1699 19 16.5C19.0011 16.8261 18.8948 17.1435 18.6975 17.4031L17.5 19H18.5ZM11 13V11H12.5V11.5C12.5 11.6326 12.5527 11.7598 12.6464 11.8536C12.7402 11.9473 12.8674 12 13 12C13.1326 12 13.2598 11.9473 13.3536 11.8536C13.4473 11.7598 13.5 11.6326 13.5 11.5V11H18.5V11.5C18.5 11.6326 18.5527 11.7598 18.6464 11.8536C18.7402 11.9473 18.8674 12 19 12C19.1326 12 19.2598 11.9473 19.3536 11.8536C19.4473 11.7598 19.5 11.6326 19.5 11.5V11H21V13H11Z" fill="white"/>
</svg>
